<svg xmlns="http://www.w3.org/2000/svg" viewBox="0 0 280 280" role="img" aria-labelledby="mark-title-statistics">
  <title id="mark-title-statistics">A small histogram of word-length buckets above a row of tag-frequency strokes, separated by a thin rule</title>
  <desc>A frontispiece mark for the corpus statistics view of the build telemetry page. The upper register is a five-bucket histogram in the Tufte sparkbar tradition, encoding the word-length distribution. The lower register is a row of vertical strokes of varied length representing tag frequency across the corpus. A thin rule between the two separates them — the page reports many distributions, and the mark holds two of them side by side.</desc>

  <circle cx="140" cy="140" r="128" stroke="currentColor" stroke-width="0.6" fill="none"/>

  <g stroke="currentColor" fill="none" stroke-linecap="round">
    <line x1="64"  y1="140" x2="216" y2="140" stroke-width="0.4" opacity="0.55"/>
    <line x1="64"  y1="100" x2="64"  y2="140" stroke-width="0.4" opacity="0.55"/>
  </g>

  <g stroke="currentColor" fill="none" stroke-linecap="butt" stroke-linejoin="miter">
    <rect x="68"  y="116" width="22" height="24" stroke-width="0.9" fill="none"/>
    <line x1="68"  y1="120" x2="90"  y2="120" stroke-width="0.4" opacity="0.5"/>
    <line x1="68"  y1="128" x2="90"  y2="128" stroke-width="0.4" opacity="0.5"/>
    <line x1="68"  y1="136" x2="90"  y2="136" stroke-width="0.4" opacity="0.5"/>

    <rect x="98"  y="86"  width="22" height="54" stroke-width="0.9" fill="none"/>

    <rect x="128" y="74"  width="22" height="66" stroke-width="0.9" fill="none"/>

    <rect x="158" y="92"  width="22" height="48" stroke-width="0.9" fill="none"/>

    <rect x="188" y="110" width="22" height="30" stroke-width="0.9" fill="none"/>
    <line x1="188" y1="116" x2="210" y2="116" stroke-width="0.4" opacity="0.5"/>
    <line x1="188" y1="124" x2="210" y2="124" stroke-width="0.4" opacity="0.5"/>
  </g>

  <g stroke="currentColor" fill="none" stroke-width="0.4" stroke-linecap="round">
    <line x1="79"  y1="140" x2="79"  y2="143"/>
    <line x1="109" y1="140" x2="109" y2="143"/>
    <line x1="139" y1="140" x2="139" y2="143"/>
    <line x1="169" y1="140" x2="169" y2="143"/>
    <line x1="199" y1="140" x2="199" y2="143"/>
  </g>

  <line x1="56" y1="160" x2="224" y2="160" stroke="currentColor" stroke-width="0.5" opacity="0.6" stroke-linecap="round"/>

  <g stroke="currentColor" fill="none" stroke-linecap="butt" stroke-linejoin="miter">
    <line x1="64"  y1="178" x2="64"  y2="218" stroke-width="1.4"/>
    <line x1="76"  y1="190" x2="76"  y2="218" stroke-width="0.8"/>
    <line x1="88"  y1="172" x2="88"  y2="218" stroke-width="1.6"/>
    <line x1="100" y1="200" x2="100" y2="218" stroke-width="0.6"/>
    <line x1="112" y1="184" x2="112" y2="218" stroke-width="1.0"/>
    <line x1="124" y1="166" x2="124" y2="218" stroke-width="2.0"/>
    <line x1="138" y1="194" x2="138" y2="218" stroke-width="0.7"/>
    <line x1="150" y1="180" x2="150" y2="218" stroke-width="1.2"/>
    <line x1="162" y1="188" x2="162" y2="218" stroke-width="0.9"/>
    <line x1="174" y1="170" x2="174" y2="218" stroke-width="1.6"/>
    <line x1="186" y1="198" x2="186" y2="218" stroke-width="0.7"/>
    <line x1="198" y1="184" x2="198" y2="218" stroke-width="1.0"/>
    <line x1="210" y1="206" x2="210" y2="218" stroke-width="0.5"/>
  </g>

  <line x1="56" y1="222" x2="224" y2="222" stroke="currentColor" stroke-width="0.7" stroke-linecap="round"/>

  <g stroke="currentColor" fill="none" stroke-width="0.5" stroke-linecap="round" opacity="0.85">
    <line x1="64"  y1="222" x2="64"  y2="227"/>
    <line x1="100" y1="222" x2="100" y2="227"/>
    <line x1="140" y1="222" x2="140" y2="227"/>
    <line x1="180" y1="222" x2="180" y2="227"/>
    <line x1="218" y1="222" x2="218" y2="227"/>
  </g>
</svg>
